<svg width="14" height="8" viewBox="0 0 14 8" fill="none" xmlns="http://www.w3.org/2000/svg">
<path fill-rule="evenodd" clip-rule="evenodd" d="M5.93771 0.292787C6.12524 0.105316 6.37955 0 6.64471 0C6.90988 0 7.16418 0.105316 7.35171 0.292787L13.0087 5.94979C13.1909 6.13839 13.2917 6.39099 13.2894 6.65319C13.2871 6.91538 13.1819 7.1662 12.9965 7.35161C12.8111 7.53701 12.5603 7.64218 12.2981 7.64446C12.0359 7.64674 11.7833 7.54594 11.5947 7.36379L6.64471 2.41379L1.69471 7.36379C1.50611 7.54594 1.25351 7.64674 0.99131 7.64446C0.729113 7.64218 0.478301 7.53701 0.292893 7.35161C0.107485 7.1662 0.00231622 6.91538 3.78026e-05 6.65319C-0.00224062 6.39099 0.0985537 6.13839 0.280712 5.94979L5.93771 0.292787Z" fill="#0D3B2D"/>
</svg>
