<svg width="68" height="68" viewBox="0 0 68 68" fill="none" xmlns="http://www.w3.org/2000/svg">
<g filter="url(#filter0_d_2_12034)">
<g clip-path="url(#clip0_2_12034)">
<rect x="4" y="3" width="60" height="60" rx="7" fill="#0CBC85"/>
<path d="M34.0444 48.952C35.8546 48.952 37.3221 47.4845 37.3221 45.6742C37.3221 43.864 35.8546 42.3965 34.0444 42.3965C32.2341 42.3965 30.7666 43.864 30.7666 45.6742C30.7666 47.4845 32.2341 48.952 34.0444 48.952Z" fill="white"/>
<path d="M46.2596 32.7485L46.3797 32.5627C46.4984 32.3789 46.5792 32.1732 46.6176 31.9578C46.656 31.7424 46.6512 31.5215 46.6034 31.308C46.5556 31.0945 46.4658 30.8926 46.3393 30.7141C46.2127 30.5356 46.0519 30.3841 45.8662 30.2683C42.3138 28.0737 38.2201 26.9122 34.0445 26.9141C33.4326 26.9141 32.8317 26.9141 32.2417 26.9905L35.7489 30.4977C38.6932 30.7575 41.5363 31.7003 44.0525 33.2511C44.4137 33.4699 44.8459 33.5399 45.2577 33.4461C45.6695 33.3523 46.0287 33.1022 46.2596 32.7485Z" fill="white"/>
<path d="M50.1711 23.6476C46.5297 21.3765 42.4499 19.8999 38.1986 19.3144C33.9472 18.7288 29.6202 19.0475 25.5005 20.2497L28.374 23.1232C35.2391 21.6494 42.4083 22.9115 48.3574 26.6413C48.7166 26.8535 49.1436 26.9197 49.5503 26.8262C49.9569 26.7326 50.3121 26.4865 50.5425 26.1387L50.6627 25.953C50.7841 25.77 50.8677 25.5647 50.9086 25.349C50.9496 25.1333 50.9471 24.9117 50.9013 24.697C50.8556 24.4823 50.7674 24.2789 50.642 24.0987C50.5166 23.9185 50.3565 23.7651 50.1711 23.6476Z" fill="white"/>
<path d="M17.6557 18.5884L21.0427 21.9754C19.9451 22.4813 18.8797 23.0542 17.8524 23.6908C17.6643 23.8056 17.5011 23.957 17.3725 24.136C17.2439 24.315 17.1525 24.5179 17.1036 24.7328C17.0547 24.9477 17.0494 25.1702 17.0879 25.3871C17.1264 25.6041 17.208 25.8112 17.3279 25.9961L17.4481 26.1819C17.6785 26.5297 18.0337 26.7758 18.4404 26.8693C18.847 26.9628 19.274 26.8967 19.6333 26.6844C20.9095 25.8817 22.2508 25.1873 23.6431 24.6085L27.0738 28.0393C25.3376 28.5971 23.6756 29.3639 22.1244 30.3228C21.9396 30.4394 21.7798 30.5916 21.6543 30.7705C21.5288 30.9494 21.4401 31.1514 21.3933 31.3649C21.3466 31.5784 21.3427 31.799 21.3819 32.014C21.4211 32.2289 21.5027 32.434 21.6218 32.6172L21.742 32.8029C21.9724 33.1508 22.3276 33.3969 22.7342 33.4904C23.1409 33.5839 23.5679 33.5177 23.9271 33.3055C25.781 32.1598 27.817 31.3395 29.9473 30.88L33.8806 34.8133C31.2637 34.8405 28.7019 35.5687 26.4619 36.922C26.2775 37.0376 26.1179 37.1888 25.9926 37.3667C25.8672 37.5446 25.7786 37.7457 25.7318 37.9583C25.685 38.1709 25.681 38.3907 25.7201 38.6048C25.7592 38.8189 25.8405 39.0231 25.9593 39.2055L26.0686 39.3803C26.309 39.7356 26.6776 39.9841 27.0972 40.0737C27.5167 40.1634 27.9547 40.0871 28.3193 39.861C29.7898 38.9875 31.4416 38.4642 33.1467 38.3316C34.8519 38.199 36.5647 38.4606 38.1526 39.0962L46.0629 46.9956L47.6034 45.4551L19.1962 17.0479L17.6557 18.5884Z" fill="white"/>
</g>
</g>
<defs>
<filter id="filter0_d_2_12034" x="0" y="0" width="68" height="68" filterUnits="userSpaceOnUse" color-interpolation-filters="sRGB">
<feFlood flood-opacity="0" result="BackgroundImageFix"/>
<feColorMatrix in="SourceAlpha" type="matrix" values="0 0 0 0 0 0 0 0 0 0 0 0 0 0 0 0 0 0 127 0" result="hardAlpha"/>
<feOffset dy="1"/>
<feGaussianBlur stdDeviation="2"/>
<feComposite in2="hardAlpha" operator="out"/>
<feColorMatrix type="matrix" values="0 0 0 0 0 0 0 0 0 0 0 0 0 0 0 0 0 0 0.25 0"/>
<feBlend mode="normal" in2="BackgroundImageFix" result="effect1_dropShadow_2_12034"/>
<feBlend mode="normal" in="SourceGraphic" in2="effect1_dropShadow_2_12034" result="shape"/>
</filter>
<clipPath id="clip0_2_12034">
<rect x="4" y="3" width="60" height="60" rx="7" fill="white"/>
</clipPath>
</defs>
</svg>
