<svg width="70" height="70" viewBox="0 0 70 70" fill="none" xmlns="http://www.w3.org/2000/svg">
<rect width="70" height="70" rx="35" fill="#0D3B2D"/>
<path d="M25.8115 32.9335C28.2709 37.7669 32.2333 41.7121 37.0666 44.1886L40.824 40.4312C41.2852 39.9701 41.9683 39.8164 42.5661 40.0213C44.4789 40.6532 46.5455 40.9948 48.6633 40.9948C49.6027 40.9948 50.3712 41.7634 50.3712 42.7027V48.6633C50.3712 49.6027 49.6027 50.3712 48.6633 50.3712C32.6261 50.3712 19.6289 37.3741 19.6289 21.3368C19.6289 20.3975 20.3975 19.6289 21.3368 19.6289H27.3145C28.2538 19.6289 29.0224 20.3975 29.0224 21.3368C29.0224 23.4717 29.364 25.5212 29.9959 27.434C30.1838 28.0318 30.0471 28.6979 29.5689 29.1761L25.8115 32.9335Z" fill="white"/>
</svg>
