<svg width="70" height="70" viewBox="0 0 70 70" fill="none" xmlns="http://www.w3.org/2000/svg">
<rect width="70" height="70" rx="35" fill="#0D3B2D"/>
<path d="M49.6898 27.6545L34.9999 36.8358L20.3099 27.6545V23.9821L34.9999 33.1633L49.6898 23.9821M49.6898 20.3096H20.3099C18.2717 20.3096 16.6375 21.9438 16.6375 23.9821V46.017C16.6375 46.991 17.0244 47.9251 17.7131 48.6138C18.4018 49.3025 19.3359 49.6895 20.3099 49.6895H49.6898C50.6638 49.6895 51.5979 49.3025 52.2867 48.6138C52.9754 47.9251 53.3623 46.991 53.3623 46.017V23.9821C53.3623 23.0081 52.9754 22.0739 52.2867 21.3852C51.5979 20.6965 50.6638 20.3096 49.6898 20.3096Z" fill="white"/>
</svg>
