<svg width="70" height="70" viewBox="0 0 70 70" fill="none" xmlns="http://www.w3.org/2000/svg">
<rect width="70" height="70" rx="35" fill="#0D3B2D"/>
<path d="M35 17.125C39.2312 17.125 43.2892 18.8059 46.2812 21.7978C49.2731 24.7898 50.954 28.8478 50.954 33.0791C50.954 38.5283 47.983 42.9883 44.8525 46.188C43.2884 47.7693 41.5818 49.203 39.7543 50.4708L38.9991 50.9848L38.6446 51.2206L37.9763 51.646L37.3807 52.0094L36.6432 52.4384C36.1427 52.7241 35.5763 52.8744 35 52.8744C34.4236 52.8744 33.8572 52.7241 33.3567 52.4384L32.6193 52.0094L31.6975 51.4422L31.3571 51.2206L30.6303 50.7367C28.6588 49.4028 26.8224 47.8793 25.1474 46.188C22.0169 42.9865 19.0459 38.5283 19.0459 33.0791C19.0459 28.8478 20.7268 24.7898 23.7187 21.7978C26.7107 18.8059 30.7687 17.125 35 17.125ZM35 27.761C34.3016 27.761 33.61 27.8986 32.9648 28.1658C32.3196 28.4331 31.7334 28.8248 31.2395 29.3186C30.7457 29.8125 30.354 30.3987 30.0867 31.0439C29.8195 31.6891 29.6819 32.3807 29.6819 33.0791C29.6819 33.7774 29.8195 34.469 30.0867 35.1142C30.354 35.7594 30.7457 36.3456 31.2395 36.8395C31.7334 37.3333 32.3196 37.725 32.9648 37.9923C33.61 38.2595 34.3016 38.3971 35 38.3971C36.4104 38.3971 37.763 37.8368 38.7604 36.8395C39.7577 35.8421 40.318 34.4895 40.318 33.0791C40.318 31.6686 39.7577 30.316 38.7604 29.3186C37.763 28.3213 36.4104 27.761 35 27.761Z" fill="white"/>
</svg>
